<svg height="512pt" viewBox="0 0 512.11336 512" width="512pt" xmlns="http://www.w3.org/2000/svg"><path d="m448.03125 200.058594c0 57.4375-46.5625 104-104 104s-104-46.5625-104-104c0-57.441406 46.5625-104 104-104s104 46.558594 104 104zm0 0" fill="#ff6853"/><path d="m432.03125 448.058594h-336c-46.84375.015625-86.859375-33.78125-94.683594-79.96875-7.824218-46.1875 18.832032-91.277344 63.070313-106.6875 4.636719-61.84375 48.351562-113.773438 108.496093-128.886719 60.148438-15.117187 123.21875 9.972656 156.542969 62.277344 7.390625-1.8125 14.96875-2.730469 22.574219-2.734375 53 .050781 95.949219 43 96 96v1.597656c40.28125 8.179688 67.808594 45.546875 63.675781 86.441406-4.128906 40.890625-38.574219 72-79.675781 71.960938zm0 0" fill="#f2ecda"/><path d="m432.03125 368.058594h-336c-37.417969-.042969-71.402344-21.828125-87.070312-55.808594-13.816407 29.652344-11.484376 64.316406 6.171874 91.859375 17.65625 27.539063 48.183594 44.125 80.898438 43.949219h336c28.660156.035156 55.140625-15.277344 69.40625-40.132813s14.125-55.449219-.363281-80.171875c-14.128907 24.835938-40.46875 40.210938-69.042969 40.304688zm0 0" fill="#eae2cc"/><g fill="#f7d260"><path d="m336.03125.0585938h32v64.0000002h-32zm0 0"/><path d="m480.03125 192.058594h32v32h-32zm0 0"/><path d="m436.71875 84.746094 48.003906-48.003906 22.625 22.625-48.003906 48.003906zm0 0"/><path d="m180.722656 59.375 22.625-22.628906 48.003906 48.003906-22.625 22.628906zm0 0"/></g><path d="m208.03125 192.058594h32v32h-32zm0 0" fill="#fff"/><path d="m144.03125 192.058594h32v32h-32zm0 0" fill="#fff"/><path d="m160.03125 384.058594h32v128h-32zm0 0" fill="#1998f1"/><path d="m224.03125 384.058594h32v64h-32zm0 0" fill="#1998f1"/><path d="m224.03125 480.058594h32v32h-32zm0 0" fill="#1998f1"/><path d="m288.03125 384.058594h32v128h-32zm0 0" fill="#1998f1"/></svg>